<svg xmlns="http://www.w3.org/2000/svg" viewBox="0 0 24 24" width="24" height="24" fill="none" stroke="currentColor" stroke-width="1.7" stroke-linecap="round" stroke-linejoin="round"><path d="M10.3 2.5 H13.7 L14.2 5 a7 7 0 0 1 1.9 .8 L18.3 4.5 L20.7 6.9 L19.2 9.1 a7 7 0 0 1 .8 1.9 L22.5 11.5 V14.9 L20 15.4 a7 7 0 0 1 -.8 1.9 L20.7 19.5 L18.3 21.9 L16.1 20.4 a7 7 0 0 1 -1.9 .8 L13.7 23.5 H10.3 L9.8 21 a7 7 0 0 1 -1.9 -.8 L5.7 21.9 L3.3 19.5 L4.8 17.3 a7 7 0 0 1 -.8 -1.9 L1.5 14.9 V11.5 L4 11 a7 7 0 0 1 .8 -1.9 L3.3 6.9 L5.7 4.5 L7.9 6 a7 7 0 0 1 1.9 -.8 Z"></path><circle cx="12" cy="13.2" r="3"></circle></svg>